# xmcd
#
# Track frame offsets:
#	150
#	17756
#	38782
#	57162
#	73232
#	89328
#	103347
#	119078
#	157614
#	170184
#
# Disc length: 4239 seconds
#
# Revision: 1
# Processed by: cddbd v1.5.2PL0 Copyright (c) Steve Scherf et al.
# Submitted via: audiograbber 1.83.01
#
DISCID=89108d0a
DTITLE=Roy Buchanan - My Bride
DYEAR=1980
DGENRE=Blues
TTITLE0=You Gotta Let Me Know
TTITLE1=My Babe
TTITLE2=It Should've Been Me
TTITLE3=Secret Love
TTITLE4=Lack of Funk
TTITLE5=Dr. Rock and Roll
TTITLE6=Dizzy Miss Lizzy
TTITLE7=Blues for Gary
TTITLE8=My Sonata
TTITLE9=Promo Interview with Roy Buchanan
EXTD=
EXTT0=
EXTT1=
EXTT2=
EXTT3=
EXTT4=
EXTT5=
EXTT6=
EXTT7=
EXTT8=
EXTT9=
PLAYORDER=
